<?xml version="1.0" standalone="no"?>
<!DOCTYPE svg PUBLIC "-//W3C//DTD SVG 20010904//EN"
 "http://www.w3.org/TR/2001/REC-SVG-20010904/DTD/svg10.dtd">
<svg version="1.0" xmlns="http://www.w3.org/2000/svg"
 width="640.000000pt" height="640.000000pt" viewBox="0 0 640.000000 640.000000"
 preserveAspectRatio="xMidYMid meet">

<g transform="translate(0.000000,640.000000) scale(0.100000,-0.100000)"
fill="#000000" stroke="none">
<path d="M2484 5826 c-6 -17 11 -46 28 -46 14 0 5 53 -9 58 -7 2 -16 -4 -19
-12z"/>
<path d="M3887 5833 c-10 -9 -8 -53 2 -53 5 0 14 7 21 15 20 24 -2 59 -23 38z"/>
<path d="M2501 5689 c-15 -33 -37 -60 -68 -82 -79 -56 -132 -108 -144 -141 -8
-21 -25 -38 -53 -52 -56 -28 -86 -75 -86 -133 0 -38 -4 -48 -22 -56 -13 -6
-30 -24 -38 -42 -12 -25 -20 -31 -36 -27 -12 3 -38 -1 -58 -10 -34 -14 -39
-14 -69 4 -43 27 -100 25 -156 -4 -29 -16 -69 -26 -111 -29 -45 -3 -86 -15
-133 -37 -58 -28 -76 -32 -125 -28 l-58 4 4 -56 c4 -48 -1 -69 -29 -131 -21
-48 -34 -95 -36 -134 -3 -38 -13 -77 -29 -106 -29 -57 -31 -102 -4 -151 18
-34 18 -39 4 -74 -9 -20 -13 -47 -10 -60 5 -18 2 -24 -10 -24 -8 0 -30 -15
-47 -32 -24 -24 -42 -33 -70 -35 -54 -2 -98 -32 -127 -85 -14 -27 -34 -49 -46
-52 -34 -9 -72 -44 -128 -119 -48 -66 -84 -94 -139 -111 -16 -5 -16 -7 2 -25
34 -34 52 -79 57 -149 7 -80 20 -127 45 -164 12 -17 19 -43 19 -75 0 -61 25
-111 70 -141 27 -18 37 -33 42 -65 4 -23 15 -48 25 -54 16 -12 16 -14 -1 -26
-10 -7 -20 -32 -23 -56 -5 -36 -11 -45 -39 -59 -44 -20 -74 -81 -74 -149 0
-32 -5 -55 -14 -62 -21 -17 -46 -98 -46 -146 0 -57 -25 -137 -52 -166 l-23
-24 50 -25 c30 -15 62 -43 82 -70 67 -90 104 -129 137 -141 24 -9 39 -24 55
-56 26 -54 71 -83 131 -83 39 0 47 -4 62 -30 9 -16 28 -32 42 -36 21 -5 25
-11 20 -29 -3 -12 1 -39 10 -59 14 -34 14 -39 -4 -69 -12 -19 -19 -48 -19 -72
l1 -40 8 48 c5 27 16 57 24 66 20 22 20 30 -1 71 -14 30 -14 36 -2 59 8 14 24
27 36 29 28 4 56 -26 50 -55 -3 -15 1 -23 9 -23 16 0 47 65 61 126 l10 41 -46
13 c-59 18 -123 19 -128 3 -3 -7 2 -13 11 -13 27 0 40 -38 21 -66 -23 -35 -58
-31 -92 11 -25 31 -33 35 -75 35 -39 0 -54 6 -82 31 -19 17 -40 45 -47 63 -9
24 -23 36 -56 50 -30 12 -55 33 -76 63 -54 76 -106 130 -137 143 -17 7 -30 14
-30 15 0 1 12 23 26 48 18 33 28 70 34 132 7 64 16 98 35 132 20 32 27 60 28
102 2 67 23 105 72 128 29 14 35 22 35 48 0 62 56 98 94 59 20 -19 20 -38 1
-58 -36 -36 -1 -35 54 1 23 15 41 30 41 35 0 4 9 17 20 28 20 20 20 20 0 40
-11 11 -20 24 -20 28 0 5 -18 20 -41 35 -55 36 -90 37 -54 1 19 -20 19 -39 -1
-58 -19 -20 -58 -21 -74 -1 -6 8 -14 32 -17 53 -4 32 -11 42 -39 55 -48 23
-69 61 -71 128 -1 42 -8 70 -28 102 -19 34 -28 68 -35 132 -6 62 -16 99 -35
132 -19 36 -23 48 -13 54 63 35 89 59 128 117 36 52 57 73 96 92 37 18 54 34
63 57 6 17 28 45 47 62 28 25 43 31 82 31 42 0 50 4 75 35 32 40 64 45 91 16
23 -25 13 -57 -22 -75 -23 -12 -24 -14 -6 -19 26 -8 71 -3 126 13 l45 14 -9
40 c-13 59 -46 126 -62 126 -9 0 -12 -7 -9 -19 3 -10 0 -29 -7 -41 -16 -29
-60 -24 -79 10 -12 23 -12 30 4 63 9 20 14 42 11 49 -4 7 -13 24 -21 38 -22
38 -18 88 12 139 20 35 26 57 24 93 -2 36 6 66 34 127 26 59 36 94 36 135 l1
54 54 1 c40 0 76 10 134 36 63 29 91 36 132 34 43 -2 60 3 92 24 48 34 111 36
149 7 30 -24 35 -24 76 -4 56 28 106 -10 83 -62 -9 -18 -19 -24 -42 -24 -16 0
-30 -4 -30 -10 0 -12 71 -45 126 -57 l40 -10 13 41 c18 57 24 133 11 141 -5 3
-14 -5 -19 -18 -13 -32 -39 -41 -67 -22 -35 23 -31 59 11 92 31 25 35 33 35
75 0 39 6 54 31 82 17 19 46 41 65 48 19 6 34 16 34 21 0 32 40 83 96 123 59
42 124 106 124 122 0 4 4 13 8 20 7 10 19 7 55 -13 33 -19 70 -29 131 -35 77
-8 129 -25 164 -53 8 -6 33 -10 57 -8 62 4 109 -20 137 -68 19 -34 28 -41 53
-41 62 0 97 -56 59 -94 -19 -20 -38 -20 -58 -1 -18 19 -26 19 -26 0 0 -20 46
-85 73 -104 12 -8 25 -20 30 -25 5 -8 9 -8 15 0 4 5 17 17 29 25 27 19 73 84
73 104 0 19 -8 19 -26 0 -20 -19 -39 -19 -58 1 -38 38 -3 94 59 94 25 0 34 7
53 41 28 48 75 72 137 68 24 -2 49 2 57 8 35 28 87 45 164 53 61 6 98 16 131
35 36 20 48 23 55 13 4 -7 8 -16 8 -20 0 -16 65 -80 124 -122 56 -40 96 -91
96 -123 0 -5 15 -15 34 -21 19 -7 48 -29 65 -48 25 -28 31 -43 31 -82 0 -42 4
-50 35 -75 42 -33 46 -69 11 -92 -28 -19 -54 -10 -67 22 -5 13 -14 21 -19 18
-13 -8 -7 -84 11 -141 l13 -41 40 10 c55 12 126 45 126 57 0 6 -14 10 -30 10
-23 0 -33 6 -42 24 -23 52 27 90 83 62 41 -20 46 -20 76 4 38 29 101 27 149
-7 32 -21 49 -26 92 -24 41 2 69 -5 132 -34 59 -27 93 -36 135 -36 l55 -1 0
-55 c0 -42 9 -75 36 -134 28 -62 35 -90 33 -131 -2 -43 3 -60 24 -92 33 -47
35 -97 6 -150 -19 -37 -20 -40 -3 -74 15 -32 15 -39 3 -62 -19 -34 -63 -39
-79 -10 -7 12 -10 31 -7 41 3 12 0 19 -9 19 -16 0 -47 -64 -61 -126 l-10 -41
45 -13 c59 -17 111 -21 131 -10 13 7 12 10 -10 19 -34 13 -43 38 -24 67 23 35
59 31 92 -11 25 -31 33 -35 75 -35 39 0 54 -6 82 -31 19 -17 41 -45 47 -62 9
-23 26 -39 63 -57 39 -19 60 -40 96 -92 39 -58 65 -82 128 -117 10 -6 6 -18
-13 -54 -19 -33 -29 -70 -35 -132 -7 -64 -16 -98 -35 -132 -20 -32 -27 -60
-28 -102 -2 -67 -23 -105 -72 -128 -29 -14 -35 -22 -35 -48 0 -62 -56 -98 -94
-59 -20 19 -20 38 -1 58 36 36 1 35 -54 -1 -23 -15 -41 -30 -41 -35 0 -4 -9
-17 -20 -28 l-20 -20 20 -20 c11 -11 20 -24 20 -28 0 -5 18 -20 41 -35 55 -36
90 -37 54 -1 -19 20 -19 39 1 58 19 20 58 21 74 1 6 -8 14 -32 17 -53 4 -32
11 -42 39 -55 48 -23 69 -61 71 -128 1 -42 8 -70 28 -102 19 -34 28 -68 35
-132 6 -62 16 -99 34 -132 14 -25 26 -47 26 -48 0 -1 -13 -8 -30 -15 -31 -13
-83 -67 -137 -143 -21 -30 -46 -51 -76 -63 -33 -14 -47 -26 -56 -50 -7 -18
-28 -46 -47 -63 -19 -17 -30 -31 -25 -31 15 0 67 56 80 87 7 17 28 36 54 48
30 14 60 44 103 100 55 73 126 131 145 119 4 -2 10 0 13 4 3 5 -6 20 -19 32
-30 28 -55 105 -55 169 -1 52 -20 114 -44 140 -10 11 -16 36 -16 70 0 66 -29
122 -75 144 -27 13 -33 22 -38 58 -3 24 -13 49 -23 56 -17 12 -17 14 0 26 9 7
20 32 23 55 5 34 12 45 39 61 50 30 74 76 74 140 0 36 5 60 16 72 24 26 43 88
44 140 0 63 25 141 55 173 22 24 23 27 7 32 -54 16 -90 46 -138 111 -57 76
-94 110 -129 119 -13 3 -30 23 -43 50 -27 54 -72 84 -129 84 -35 0 -45 5 -63
30 -12 16 -32 33 -46 36 -19 5 -23 11 -18 29 3 12 -1 38 -10 58 -13 33 -13 39
5 74 26 50 24 96 -5 152 -16 29 -26 68 -29 106 -2 39 -15 86 -36 134 -28 62
-33 83 -29 131 l4 56 -56 -4 c-48 -4 -69 1 -131 29 -48 21 -95 34 -134 36 -38
3 -77 13 -106 29 -56 29 -113 31 -156 4 -30 -18 -35 -18 -68 -4 -19 8 -46 12
-59 8 -19 -4 -25 -1 -30 20 -3 14 -20 36 -36 48 -25 18 -30 29 -30 62 0 56
-31 102 -84 128 -27 13 -47 30 -50 43 -9 35 -43 72 -119 129 -65 48 -95 84
-111 138 -5 16 -8 15 -32 -7 -32 -30 -110 -55 -173 -55 -52 -1 -114 -20 -140
-44 -12 -11 -36 -16 -72 -16 -65 0 -111 -24 -140 -75 -15 -25 -28 -35 -46 -35
-26 0 -64 -17 -74 -33 -4 -6 -16 -1 -30 12 -13 12 -36 21 -55 21 -26 0 -36 7
-53 35 -29 51 -75 75 -140 75 -36 0 -60 5 -72 16 -26 24 -88 43 -140 44 -62 0
-139 24 -170 53 l-25 24 -23 -48z"/>
<path d="M3190 5730 c0 -5 5 -10 10 -10 6 0 10 5 10 10 0 6 -4 10 -10 10 -5 0
-10 -4 -10 -10z"/>
<path d="M3186 5589 c-7 -91 0 -119 24 -104 13 8 4 173 -10 188 -4 4 -10 -33
-14 -84z"/>
<path d="M2986 5475 c-3 -8 -1 -15 4 -15 13 0 22 18 11 24 -5 3 -11 -1 -15 -9z"/>
<path d="M3397 5484 c-8 -8 1 -24 12 -24 4 0 8 7 8 15 0 16 -9 20 -20 9z"/>
<path d="M2574 5454 c-3 -13 -10 -22 -14 -19 -17 10 -23 -18 -7 -30 10 -7 17
-19 17 -28 0 -21 19 -32 33 -18 6 6 22 11 35 11 20 0 23 4 19 22 -4 12 -1 28
4 35 15 17 1 36 -22 30 -11 -3 -19 -2 -19 3 0 4 -9 10 -20 13 -15 4 -22 -1
-26 -19z m59 -26 c7 -23 -4 -38 -29 -38 -17 0 -24 6 -24 18 0 10 3 22 7 25 11
12 41 8 46 -5z"/>
<path d="M3786 5464 c-4 -10 -13 -13 -25 -9 -23 7 -37 -11 -22 -28 5 -7 8 -23
4 -35 -5 -21 4 -28 31 -23 4 1 14 -3 22 -10 17 -14 34 -3 34 22 0 10 7 19 15
19 22 0 18 28 -5 35 -11 3 -19 9 -19 13 5 33 -24 46 -35 16z m32 -50 c2 -15
-4 -23 -18 -27 -25 -6 -45 24 -27 42 17 17 42 9 45 -15z"/>
<path d="M1920 5390 c0 -5 7 -10 15 -10 8 0 15 5 15 10 0 6 -7 10 -15 10 -8 0
-15 -4 -15 -10z"/>
<path d="M4450 5390 c0 -5 7 -10 15 -10 8 0 15 5 15 10 0 6 -7 10 -15 10 -8 0
-15 -4 -15 -10z"/>
<path d="M1985 5285 c20 -44 39 -86 42 -92 6 -14 43 -18 43 -5 0 9 -93 146
-112 167 -5 6 7 -26 27 -70z"/>
<path d="M4386 5279 c-30 -45 -53 -86 -50 -90 8 -13 31 -11 37 4 3 6 21 47 41
90 19 42 34 77 32 77 -2 0 -29 -37 -60 -81z"/>
<path d="M2620 5340 c0 -5 5 -10 11 -10 5 0 7 5 4 10 -3 6 -8 10 -11 10 -2 0
-4 -4 -4 -10z"/>
<path d="M3765 5340 c-3 -5 -1 -10 4 -10 6 0 11 5 11 10 0 6 -2 10 -4 10 -3 0
-8 -4 -11 -10z"/>
<path d="M2230 5275 c0 -8 7 -15 16 -15 14 0 14 3 4 15 -7 8 -14 15 -16 15 -2
0 -4 -7 -4 -15z"/>
<path d="M2978 5276 c14 -11 22 -28 22 -47 0 -27 -3 -29 -37 -30 -73 -3 -99
-7 -203 -33 -150 -38 -267 -75 -328 -103 -42 -21 -55 -23 -67 -13 -17 14 -20
56 -5 65 6 4 8 11 4 16 -8 14 -47 -39 -40 -56 3 -8 10 -15 15 -15 5 0 11 -7
14 -15 4 -10 -17 -26 -76 -56 -45 -23 -116 -64 -158 -90 -42 -27 -79 -49 -83
-49 -4 0 -12 14 -18 31 -7 20 -15 28 -25 25 -8 -3 -24 -6 -34 -6 -11 0 -18 -4
-14 -10 3 -5 12 -7 20 -4 13 6 55 -28 55 -45 0 -10 -64 -61 -77 -61 -10 0
-323 -314 -323 -324 0 -15 -53 -76 -66 -76 -17 0 -48 46 -40 59 4 5 2 12 -3
15 -10 6 -24 -51 -15 -65 3 -5 14 -9 24 -9 36 0 32 -21 -18 -98 -28 -42 -69
-114 -92 -159 -40 -80 -59 -95 -74 -57 -7 19 -30 18 -49 -4 -22 -25 -21 -35 1
-21 23 14 72 4 72 -14 0 -7 -11 -35 -24 -63 -39 -81 -126 -391 -131 -466 -1
-16 -2 -44 -3 -63 -2 -32 -5 -35 -31 -35 -19 0 -36 8 -47 23 -12 16 -15 17
-10 4 3 -10 6 -26 6 -34 0 -12 7 -14 35 -9 l35 7 0 -191 0 -191 -35 7 c-28 5
-35 3 -35 -9 0 -8 -3 -24 -6 -34 -5 -13 -2 -12 10 5 11 14 28 22 47 22 26 0
29 -4 31 -32 4 -84 8 -110 32 -208 38 -151 75 -267 103 -328 21 -42 23 -55 13
-67 -14 -17 -56 -20 -65 -5 -4 6 -11 8 -16 4 -14 -8 39 -47 56 -40 8 3 15 10
15 15 0 5 7 11 15 14 10 4 26 -17 55 -76 23 -45 64 -117 92 -159 50 -77 54
-98 18 -98 -10 0 -21 -3 -23 -7 -8 -13 5 -73 14 -68 4 3 6 12 3 20 -6 13 28
55 45 55 13 0 61 -66 61 -84 0 -9 3 -15 8 -14 4 1 75 -67 157 -150 83 -83 154
-152 158 -152 13 0 77 -51 77 -61 0 -17 -42 -51 -55 -45 -8 3 -17 1 -20 -3 -5
-9 55 -22 68 -14 4 2 7 13 7 23 0 35 21 32 99 -19 43 -27 115 -69 159 -91 73
-37 81 -44 71 -61 -5 -10 -14 -19 -19 -19 -16 0 -11 -26 8 -43 21 -19 42 -23
24 -5 -17 17 -15 53 3 68 12 10 25 8 67 -13 61 -28 177 -65 328 -103 98 -24
124 -28 208 -32 29 -2 32 -5 32 -32 0 -19 -7 -34 -20 -42 -11 -7 -20 -17 -20
-22 0 -6 5 -5 12 2 7 7 21 12 31 12 17 0 18 5 13 35 l-7 35 191 0 191 0 -7
-35 c-5 -28 -3 -35 9 -35 8 0 24 -3 34 -6 13 -5 12 -2 -4 10 -15 11 -23 28
-23 47 0 26 4 29 33 31 83 4 109 8 207 32 151 38 268 75 324 102 28 13 56 24
63 24 18 0 28 -49 14 -72 -15 -24 1 -23 24 2 17 19 15 50 -4 50 -5 0 -11 7
-14 15 -4 10 17 26 76 56 45 23 117 64 159 91 77 50 98 53 98 18 0 -10 3 -21
8 -23 13 -8 72 5 66 14 -3 5 -10 7 -15 3 -13 -8 -59 23 -59 40 0 13 61 66 77
66 10 0 323 315 323 325 0 13 50 75 61 75 17 0 51 -41 45 -55 -3 -8 -1 -17 3
-20 9 -5 22 55 14 68 -2 4 -13 7 -23 7 -36 0 -32 21 18 98 28 42 69 114 92
159 37 74 43 82 61 73 10 -6 19 -15 19 -20 0 -17 25 -11 43 10 19 23 23 40 5
22 -16 -16 -53 -15 -67 2 -9 11 -8 24 5 57 10 24 20 46 24 49 8 6 32 88 76
260 33 127 38 155 42 238 2 29 5 32 32 32 19 0 34 -7 42 -20 16 -25 32 -27 19
-3 -5 10 -12 26 -15 36 -5 14 -10 16 -25 7 -40 -21 -41 -16 -41 180 0 196 1
201 41 180 15 -9 20 -7 25 7 3 10 10 26 15 36 13 24 -3 22 -19 -3 -8 -13 -23
-20 -42 -20 -27 0 -30 3 -32 35 -1 19 -2 47 -3 63 -5 76 -92 384 -132 470 -21
42 -23 55 -13 67 15 18 51 20 68 3 18 -18 14 -1 -5 22 -20 23 -41 26 -49 6
-15 -38 -34 -23 -74 57 -23 45 -64 117 -92 159 -50 77 -54 98 -18 98 10 0 21
4 24 9 9 13 -5 72 -15 66 -4 -3 -6 -12 -3 -20 6 -14 -28 -55 -45 -55 -14 0
-61 64 -61 83 0 10 -3 16 -7 15 -5 -1 -75 67 -158 150 -82 83 -154 152 -158
152 -13 0 -77 51 -77 61 0 17 42 51 55 45 8 -3 17 -1 20 3 5 9 -55 22 -67 14
-5 -2 -8 -13 -8 -23 0 -35 -21 -32 -98 18 -42 27 -114 68 -159 91 -76 39 -81
44 -70 62 6 10 15 19 19 19 15 0 8 27 -10 43 -21 19 -42 23 -24 5 17 -17 15
-53 -3 -68 -12 -10 -25 -8 -67 13 -61 28 -177 65 -328 103 -98 24 -124 28
-207 32 -29 2 -33 5 -33 31 0 19 8 36 23 47 16 12 17 15 4 10 -10 -3 -26 -6
-34 -6 -12 0 -14 -7 -9 -35 l7 -35 -191 0 -191 0 7 35 c5 28 3 35 -9 35 -8 0
-24 3 -34 6 -13 5 -12 2 5 -10z m567 -145 c746 -139 1341 -680 1543 -1402 55
-195 67 -292 67 -534 -1 -183 -4 -239 -23 -335 -155 -824 -768 -1436 -1592
-1593 -167 -31 -513 -31 -680 0 -875 167 -1515 854 -1611 1734 -25 227 3 529
70 754 214 718 829 1263 1556 1379 153 24 157 24 365 21 143 -2 224 -9 305
-24z"/>
<path d="M3030 4739 c-206 -56 -678 -234 -717 -271 -29 -27 -47 -81 -38 -116
3 -15 18 -39 32 -54 15 -15 25 -29 22 -31 -2 -2 -67 -36 -144 -76 -78 -40
-154 -87 -172 -106 -34 -35 -51 -102 -39 -150 11 -42 68 -96 193 -185 133 -93
303 -220 303 -225 0 -7 -339 -313 -414 -373 -93 -75 -122 -90 -181 -98 -90
-13 -130 54 -100 167 21 86 68 199 126 306 52 97 52 135 -1 58 -54 -78 -136
-248 -153 -318 -29 -116 -16 -211 38 -283 32 -42 31 -62 -10 -174 -20 -54 -29
-101 -32 -171 -9 -158 33 -249 123 -269 65 -15 101 1 229 104 19 16 37 27 39
25 2 -2 -5 -44 -16 -94 -28 -128 -22 -270 14 -340 35 -67 90 -118 163 -152
143 -66 395 -34 638 79 48 23 90 38 93 35 4 -4 1 -34 -6 -67 -41 -193 73 -350
214 -296 43 17 86 58 239 229 80 90 158 152 259 206 93 51 228 108 270 116 32
6 34 4 63 -52 39 -75 84 -107 140 -97 130 21 217 123 246 289 14 81 7 694 -10
830 -10 86 -61 772 -61 825 l0 25 31 -32 c31 -34 49 -42 49 -22 0 6 -14 45
-31 87 -77 195 -100 226 -113 161 -12 -60 -6 -197 38 -899 56 -887 61 -1007
44 -1040 -18 -33 -69 -66 -133 -86 -61 -20 -87 -15 -134 26 l-34 29 50 55 c91
99 126 232 88 336 -33 93 -87 114 -148 60 -52 -45 -77 -114 -87 -240 -5 -60
-13 -117 -18 -127 -6 -10 -70 -45 -143 -77 -179 -80 -260 -137 -366 -254 -250
-276 -340 -329 -407 -239 -17 23 -21 42 -20 101 1 110 24 162 110 257 100 111
119 152 118 254 0 65 -7 99 -37 185 -20 58 -37 109 -37 114 0 4 16 5 35 2 19
-4 35 -3 35 1 0 14 -30 53 -94 127 l-61 69 -8 -39 c-10 -47 -2 -117 19 -176
55 -148 104 -304 104 -328 0 -16 -11 -42 -24 -58 -57 -67 -289 -195 -438 -241
-170 -52 -337 -48 -455 10 -116 56 -159 139 -157 304 1 125 26 198 90 261 54
54 233 142 363 179 201 56 268 121 279 267 6 86 -8 140 -63 238 -24 44 -40 80
-35 80 9 0 154 -107 365 -270 66 -51 141 -108 167 -128 40 -30 48 -42 53 -76
12 -96 25 -376 26 -576 0 -243 7 -282 32 -205 9 28 22 84 29 125 15 93 15 427
-1 534 -6 44 -10 81 -8 83 2 2 33 -3 68 -12 171 -40 280 13 320 155 18 61 15
336 -5 565 -8 99 -27 308 -41 465 -13 157 -27 308 -30 335 l-6 50 40 -45 c73
-83 65 -22 -22 163 -27 59 -56 107 -63 107 -41 0 -37 -90 42 -1000 49 -569 50
-597 27 -628 -25 -34 -122 -66 -173 -57 -53 9 -137 51 -149 73 -14 27 -29 196
-41 477 -5 132 -10 249 -10 259 0 15 7 11 34 -20 66 -76 59 -10 -21 184 -25
61 -50 112 -54 112 -5 0 -16 -26 -25 -57 -14 -49 -16 -84 -10 -223 4 -91 11
-265 16 -388 5 -123 6 -230 3 -238 -3 -7 -13 -14 -22 -14 -9 0 -115 71 -237
158 -361 257 -329 231 -311 250 24 23 166 28 237 7 87 -26 93 -25 103 17 13
55 -7 85 -91 136 -44 26 -83 59 -97 81 -27 41 -52 131 -61 220 -7 65 -2 72 36
49 28 -18 33 -6 13 39 -24 53 -106 193 -114 193 -10 0 -19 -56 -19 -113 0 -27
16 -139 35 -248 41 -234 41 -239 16 -239 -11 0 -55 -13 -98 -30 -42 -16 -85
-30 -95 -30 -10 0 -68 33 -130 74 -62 40 -176 110 -253 154 -215 124 -227 131
-223 145 8 22 67 55 222 120 411 175 889 317 1073 319 80 1 127 -19 152 -64
19 -33 18 -34 -125 -153 -133 -112 -188 -175 -245 -280 l-43 -80 200 194 c109
106 214 214 232 240 45 63 68 143 52 182 -17 40 -63 77 -108 85 -104 20 -494
-79 -1070 -271 -14 -5 -75 112 -66 127 13 20 242 114 534 218 194 69 254 96
245 110 -7 12 -18 11 -65 -1z m-384 -1361 c111 -115 214 -273 214 -326 0 -49
-66 -84 -266 -142 -199 -58 -290 -111 -470 -273 -121 -110 -169 -143 -229
-159 -39 -11 -50 -10 -73 3 -44 24 -54 54 -48 144 7 93 24 161 59 239 24 51
29 56 71 67 62 15 155 83 311 225 253 230 328 293 351 294 6 0 42 -33 80 -72z
m1513 -789 c22 -24 43 -96 35 -124 -8 -26 -90 -95 -114 -95 -15 0 -21 12 -31
58 -6 31 -12 74 -12 95 0 73 77 114 122 66z"/>
<path d="M2527 3148 l-35 -42 -49 32 c-27 18 -56 32 -63 32 -15 0 -58 -47 -66
-74 -7 -20 31 -59 84 -88 22 -11 26 -9 59 30 19 23 38 42 43 42 4 0 31 -18 60
-41 49 -39 52 -40 66 -22 30 37 45 75 39 94 -6 19 -79 79 -96 79 -4 0 -23 -19
-42 -42z"/>
<path d="M2071 2940 c-39 -90 -41 -210 -5 -224 21 -8 41 9 65 56 21 41 10 52
-15 16 -16 -22 -16 -22 -31 -3 -26 35 -27 62 -5 123 28 78 21 102 -9 32z"/>
<path d="M3364 4724 c-55 -37 -55 -37 9 -31 89 9 118 -10 52 -34 -36 -13 -47
-29 -20 -29 22 0 86 28 107 47 68 61 -64 103 -148 47z"/>
<path d="M4010 4489 c-16 -28 -10 -227 20 -689 12 -173 18 -324 16 -335 -3
-11 -35 -40 -71 -64 -36 -24 -65 -47 -65 -52 0 -13 5 -12 71 22 34 17 64 27
68 24 7 -8 19 -152 20 -257 1 -73 13 -109 25 -71 17 58 28 133 36 250 10 149
20 175 80 223 l40 32 0 76 c0 93 -8 109 -41 92 -58 -31 -73 -79 -39 -123 11
-14 20 -29 20 -34 0 -10 -42 -53 -52 -53 -13 0 -19 46 -38 302 -11 148 -23
306 -26 350 l-7 81 31 -19 c18 -10 32 -22 32 -26 0 -4 5 -8 11 -8 6 0 8 9 4
23 -15 49 -87 224 -104 251 l-19 29 -12 -24z m210 -810 c13 -24 8 -34 -15 -26
-16 7 -21 47 -5 47 5 0 14 -9 20 -21z"/>
<path d="M2015 4329 c-32 -70 -36 -179 -7 -179 17 0 52 29 52 43 0 3 -10 7
-22 9 -31 4 -33 33 -8 108 27 79 18 90 -15 19z"/>
<path d="M3152 4347 c-25 -29 -82 -164 -82 -192 1 -38 23 -68 47 -63 10 2 26
19 35 37 18 37 16 53 -4 33 -7 -7 -18 -12 -26 -12 -23 0 -9 68 27 139 17 34
31 64 31 66 0 10 -18 5 -28 -8z"/>
<path d="M3877 4108 c-33 -109 -30 -170 9 -185 21 -8 54 30 54 61 -1 20 -1 20
-15 2 -28 -36 -38 -9 -32 85 4 49 5 89 4 89 -2 0 -11 -24 -20 -52z"/>
<path d="M3573 4103 c-12 -26 -24 -69 -27 -94 -12 -82 28 -136 66 -90 24 30
23 44 -4 56 -28 12 -35 58 -18 123 15 60 7 63 -17 5z"/>
<path d="M2607 4062 c-8 -21 -21 -66 -27 -100 -7 -34 -15 -62 -19 -62 -3 0
-31 25 -61 55 -42 43 -60 55 -79 53 -17 -2 -27 -10 -29 -24 -4 -25 34 -75 52
-68 16 6 74 -58 92 -103 14 -33 28 -41 39 -24 3 5 12 58 20 118 16 112 26 136
47 115 34 -34 53 12 22 56 -22 32 -40 27 -57 -16z"/>
<path d="M4561 3952 c-16 -29 -14 -141 10 -517 11 -181 23 -489 26 -682 3
-194 9 -353 13 -353 11 0 36 66 51 135 18 86 15 366 -9 730 -25 368 -30 465
-26 465 2 0 19 -17 39 -37 30 -33 34 -35 35 -17 0 38 -92 259 -120 288 -4 4
-13 -1 -19 -12z"/>
<path d="M1884 3843 c-36 -39 -41 -69 -15 -103 11 -16 21 -32 21 -36 0 -16
-123 -120 -213 -180 -54 -35 -95 -69 -92 -74 14 -23 135 49 265 158 47 39 96
72 110 74 30 4 38 33 15 58 -9 10 -19 43 -22 74 -5 46 -9 56 -25 56 -10 0 -30
-12 -44 -27z m28 -35 c7 -18 -2 -39 -13 -32 -12 7 -12 44 0 44 5 0 11 -6 13
-12z"/>
<path d="M1717 3803 c-4 -3 -7 -30 -7 -60 0 -38 4 -53 14 -53 20 0 66 39 66
56 0 16 -16 19 -25 4 -11 -18 -25 0 -25 31 0 28 -9 37 -23 22z"/>
<path d="M2122 3603 c-10 -20 -47 -133 -56 -172 -10 -46 35 -118 66 -106 17 7
38 47 38 72 0 13 -3 14 -12 5 -20 -20 -48 -14 -50 11 -2 41 3 82 19 140 16 57
13 85 -5 50z"/>
<path d="M3232 3538 c-46 -75 -67 -199 -40 -226 28 -28 78 5 78 51 0 16 -3 17
-15 7 -12 -10 -18 -10 -31 1 -21 17 -14 70 19 143 28 61 21 76 -11 24z"/>
<path d="M3612 3387 c-44 -105 -48 -129 -27 -182 18 -49 40 -58 68 -27 27 30
24 45 -8 52 -28 5 -30 8 -29 51 0 25 8 71 18 102 27 87 13 90 -22 4z"/>
<path d="M4784 3389 c-35 -44 -66 -229 -50 -293 11 -44 44 -34 67 20 20 44 18
77 -2 41 -14 -24 -24 -21 -37 8 -18 38 -15 67 13 142 26 69 31 110 9 82z"/>
<path d="M3027 3092 c-21 -23 -22 -74 -2 -113 11 -20 13 -35 6 -47 -15 -26
-104 -110 -233 -216 -120 -99 -138 -116 -118 -116 30 0 291 210 342 274 29 37
49 52 72 56 35 6 46 31 24 57 -7 9 -17 39 -23 67 -11 57 -37 72 -68 38z m41
-50 c3 -9 -2 -13 -14 -10 -9 1 -19 9 -22 16 -3 9 2 13 14 10 9 -1 19 -9 22
-16z"/>
<path d="M1654 3017 c-41 -22 -46 -57 -8 -57 31 0 28 -16 -22 -99 -35 -57 -40
-71 -26 -71 10 0 77 107 96 154 25 59 4 97 -40 73z"/>
<path d="M4010 2969 c-29 -37 -31 -43 -20 -65 7 -13 24 -33 37 -46 l23 -22 45
44 44 43 50 -37 c28 -20 53 -36 56 -36 3 0 18 19 35 42 29 40 30 42 14 67 -39
61 -65 65 -123 15 l-42 -37 -38 37 c-20 20 -39 36 -42 36 -3 0 -20 -18 -39
-41z"/>
<path d="M3808 2815 c-42 -23 -34 -35 22 -35 59 0 67 -18 18 -43 l-33 -18 35
6 c72 11 138 61 113 86 -19 19 -124 22 -155 4z"/>
<path d="M3734 2646 c-39 -17 -104 -93 -104 -122 0 -12 7 -27 15 -34 17 -14
20 -40 5 -40 -11 0 -34 -40 -26 -47 2 -3 44 9 93 26 48 17 107 35 131 41 31 8
42 16 42 30 0 18 -7 20 -86 20 -47 0 -94 5 -105 10 -43 24 -9 64 64 74 36 6
47 11 47 26 0 10 -7 21 -16 24 -21 8 -24 8 -60 -8z"/>
<path d="M2500 2584 c-135 -78 -230 -144 -230 -160 0 -18 1 -18 64 13 31 15
58 24 62 20 4 -3 1 -43 -6 -87 -7 -44 -10 -99 -7 -121 5 -42 30 -79 53 -79 19
0 54 50 54 77 l0 25 -20 -23 c-19 -23 -21 -23 -34 -6 -36 47 -27 172 18 238
13 19 49 52 81 74 62 43 99 85 74 85 -8 -1 -57 -26 -109 -56z"/>
<path d="M2970 2568 c-31 -71 -34 -186 -6 -217 36 -40 67 -20 91 59 l7 25 -25
-24 c-22 -20 -29 -22 -42 -11 -19 16 -20 96 -1 168 8 28 11 52 6 52 -4 0 -18
-24 -30 -52z"/>
<path d="M2702 2483 c-16 -6 -42 -56 -42 -82 0 -24 72 -81 101 -81 21 0 49 48
49 84 0 35 -75 90 -108 79z"/>
<path d="M1963 2295 c-13 -9 -23 -19 -23 -23 0 -4 10 -12 23 -17 27 -12 25
-50 -5 -109 -14 -27 -16 -37 -6 -34 22 6 79 129 76 163 -4 36 -31 44 -65 20z"/>
<path d="M3947 1968 c-15 -24 -32 -61 -38 -83 -20 -77 -26 -83 -47 -36 -16 36
-118 134 -135 128 -33 -11 0 -107 38 -107 19 0 67 -58 89 -107 10 -23 22 -40
26 -38 4 3 13 25 19 50 6 25 21 70 32 100 23 62 46 71 86 33 l23 -21 0 39 c0
45 -23 84 -48 84 -10 0 -30 -19 -45 -42z"/>
<path d="M3536 1821 c-21 -39 -21 -39 10 -33 25 5 26 3 20 -24 -4 -16 -19 -46
-32 -67 -32 -49 -25 -58 11 -15 58 68 73 160 28 166 -16 2 -26 -5 -37 -27z"/>
<path d="M4150 5275 c-10 -12 -10 -15 4 -15 9 0 16 7 16 15 0 8 -2 15 -4 15
-2 0 -9 -7 -16 -15z"/>
<path d="M1272 5128 c-15 -15 2 -38 29 -38 15 0 17 4 10 22 -10 27 -23 32 -39
16z"/>
<path d="M5091 5118 c-11 -29 -6 -37 19 -31 27 7 34 21 20 38 -17 21 -29 19
-39 -7z"/>
<path d="M1876 5065 c4 -8 10 -12 15 -9 11 6 2 24 -11 24 -5 0 -7 -7 -4 -15z"/>
<path d="M4505 5071 c-3 -5 -1 -12 4 -15 5 -3 11 1 15 9 6 16 -9 21 -19 6z"/>
<path d="M1580 4871 c0 -7 -10 -9 -26 -5 -25 6 -26 5 -20 -19 3 -14 2 -29 -4
-32 -20 -12 -10 -35 15 -35 14 0 25 -4 25 -10 0 -17 18 -11 44 14 26 23 34 46
17 46 -5 0 -11 10 -13 22 -3 23 -38 39 -38 19z m20 -37 c11 -12 10 -18 -3 -32
-16 -15 -18 -15 -34 0 -13 14 -14 20 -3 32 7 9 16 16 20 16 4 0 13 -7 20 -16z"/>
<path d="M4787 4873 c-4 -3 -7 -15 -7 -25 0 -10 -4 -18 -10 -18 -16 0 -11 -30
6 -37 9 -3 19 -15 23 -26 7 -18 9 -18 23 -3 9 9 23 16 32 16 20 0 30 18 17 33
-5 7 -7 24 -4 36 6 22 4 23 -20 17 -16 -4 -27 -2 -27 4 0 11 -23 14 -33 3z
m53 -39 c11 -12 10 -18 -3 -32 -16 -15 -18 -15 -34 0 -13 14 -14 20 -3 32 7 9
16 16 20 16 4 0 13 -7 20 -16z"/>
<path d="M1655 4740 c3 -5 8 -10 11 -10 2 0 4 5 4 10 0 6 -5 10 -11 10 -5 0
-7 -4 -4 -10z"/>
<path d="M1320 4520 c0 -13 18 -22 24 -11 3 5 -1 11 -9 15 -8 3 -15 1 -15 -4z"/>
<path d="M5061 4521 c-8 -6 -9 -11 -3 -15 6 -3 14 -1 17 5 9 14 2 20 -14 10z"/>
<path d="M5380 4470 c0 -5 5 -10 11 -10 5 0 7 5 4 10 -3 6 -8 10 -11 10 -2 0
-4 -4 -4 -10z"/>
<path d="M1124 4387 c44 -31 83 -54 88 -51 22 14 2 34 -64 64 -109 48 -110 48
-24 -13z"/>
<path d="M5258 4403 c-71 -33 -92 -53 -70 -67 5 -3 44 19 87 49 43 30 74 55
69 55 -5 -1 -44 -17 -86 -37z"/>
<path d="M1110 4166 c0 -2 7 -9 15 -16 12 -10 15 -10 15 4 0 9 -7 16 -15 16
-8 0 -15 -2 -15 -4z"/>
<path d="M5260 4154 c0 -14 3 -14 15 -4 8 7 15 14 15 16 0 2 -7 4 -15 4 -8 0
-15 -7 -15 -16z"/>
<path d="M565 3910 c-10 -16 4 -30 31 -30 26 0 31 9 12 28 -15 15 -35 16 -43
2z"/>
<path d="M5793 3913 c-7 -2 -13 -11 -13 -19 0 -11 8 -14 28 -12 16 2 27 9 27
18 0 15 -21 22 -42 13z"/>
<path d="M970 3850 c0 -6 -11 -16 -25 -22 -28 -13 -33 -33 -9 -42 10 -4 13
-13 9 -25 -7 -23 11 -37 28 -22 7 5 23 8 35 4 18 -4 22 -1 22 20 0 14 5 29 11
32 15 10 6 28 -16 31 -10 2 -22 10 -27 18 -10 18 -28 21 -28 6z m40 -54 c0
-28 -24 -41 -40 -21 -16 20 -5 45 20 45 14 0 20 -7 20 -24z"/>
<path d="M5404 3845 c-4 -8 -14 -15 -24 -15 -24 0 -35 -17 -21 -34 7 -8 11
-18 10 -22 -5 -27 2 -36 23 -31 12 4 28 1 35 -4 17 -15 35 -1 28 22 -4 12 -1
21 9 25 23 9 20 34 -3 34 -11 0 -23 9 -26 20 -7 24 -23 26 -31 5z m31 -50 c0
-13 -8 -21 -22 -23 -19 -3 -23 1 -23 23 0 22 4 26 23 23 14 -2 22 -10 22 -23z"/>
<path d="M1055 3770 c3 -5 8 -10 11 -10 2 0 4 5 4 10 0 6 -5 10 -11 10 -5 0
-7 -4 -4 -10z"/>
<path d="M912 3408 c2 -5 8 -9 13 -9 5 0 11 4 13 9 1 5 -4 9 -13 9 -9 0 -14
-4 -13 -9z"/>
<path d="M5460 3410 c0 -13 18 -22 24 -11 3 5 -1 11 -9 15 -8 3 -15 1 -15 -4z"/>
<path d="M783 3213 c-81 -6 -63 -19 34 -27 85 -6 113 0 99 23 -7 11 -25 11
-133 4z"/>
<path d="M5485 3210 c-4 -6 -3 -16 2 -21 11 -11 193 1 193 12 0 5 -15 9 -34 9
-18 0 -60 3 -93 6 -42 5 -62 3 -68 -6z"/>
<path d="M660 3200 c0 -5 5 -10 10 -10 6 0 10 5 10 10 0 6 -4 10 -10 10 -5 0
-10 -4 -10 -10z"/>
<path d="M5720 3200 c0 -5 5 -10 10 -10 6 0 10 5 10 10 0 6 -4 10 -10 10 -5 0
-10 -4 -10 -10z"/>
<path d="M916 3001 c-3 -5 1 -11 9 -15 8 -3 15 -1 15 4 0 13 -18 22 -24 11z"/>
<path d="M5466 3003 c-11 -11 -7 -20 9 -20 8 0 15 4 15 8 0 11 -16 20 -24 12z"/>
<path d="M946 2661 c-4 -5 -3 -16 0 -25 4 -10 0 -18 -10 -22 -24 -9 -19 -33 8
-40 13 -3 27 -15 31 -27 l6 -22 11 23 c6 12 19 22 29 22 24 0 34 18 20 34 -7
8 -11 18 -10 22 5 28 -2 36 -25 30 -14 -3 -28 -2 -31 4 -8 12 -22 13 -29 1z
m64 -56 c0 -18 -5 -25 -19 -25 -11 0 -23 5 -26 10 -11 18 3 40 25 40 15 0 20
-7 20 -25z"/>
<path d="M5425 2660 c-3 -5 -17 -7 -31 -4 -20 5 -24 3 -24 -18 0 -13 -5 -29
-12 -36 -9 -9 -9 -15 -1 -23 16 -16 33 -2 33 27 0 21 4 25 23 22 14 -2 22 -10
22 -23 0 -13 -8 -21 -22 -23 -27 -4 -29 -14 -8 -32 13 -11 18 -10 31 8 8 12
22 22 30 22 19 0 18 26 -2 34 -9 3 -14 13 -11 20 7 18 -18 42 -28 26z"/>
<path d="M1055 2630 c-3 -5 -1 -10 4 -10 6 0 11 5 11 10 0 6 -2 10 -4 10 -3 0
-8 -4 -11 -10z"/>
<path d="M5330 2630 c0 -5 5 -10 11 -10 5 0 7 5 4 10 -3 6 -8 10 -11 10 -2 0
-4 -4 -4 -10z"/>
<path d="M564 2509 c-3 -6 -1 -16 5 -22 13 -13 42 0 49 21 5 15 -44 16 -54 1z"/>
<path d="M5782 2508 c7 -21 36 -34 49 -21 6 6 8 16 5 22 -10 15 -59 14 -54 -1z"/>
<path d="M1120 2245 c-10 -12 -10 -15 4 -15 9 0 16 7 16 15 0 8 -2 15 -4 15
-2 0 -9 -7 -16 -15z"/>
<path d="M5260 2245 c0 -8 7 -15 16 -15 14 0 14 3 4 15 -7 8 -14 15 -16 15 -2
0 -4 -7 -4 -15z"/>
<path d="M5019 2190 l-44 -15 10 -45 c16 -66 42 -120 59 -120 9 0 12 7 9 19
-3 10 0 29 7 41 16 29 60 24 79 -10 12 -23 12 -30 -4 -63 -9 -20 -14 -42 -11
-49 4 -7 13 -24 21 -38 22 -38 18 -88 -12 -139 -20 -35 -26 -57 -24 -93 2 -36
-6 -66 -34 -127 -27 -60 -36 -94 -36 -136 -1 -49 -3 -55 -22 -55 -25 0 -20 -5
14 -13 25 -6 25 -6 21 52 -4 49 1 69 29 132 21 48 34 95 36 134 3 38 13 77 29
106 29 57 31 113 4 157 -19 31 -19 35 -4 64 9 18 14 42 10 58 -4 24 -1 29 20
34 14 4 33 20 42 36 15 26 24 30 62 32 l45 1 -44 4 c-40 4 -46 1 -73 -31 -35
-43 -70 -47 -93 -12 -19 29 -10 54 23 67 65 25 -48 34 -119 9z"/>
<path d="M1148 2032 c-113 -77 -118 -85 -33 -46 44 20 86 38 93 41 14 6 16 29
3 37 -5 3 -33 -11 -63 -32z"/>
<path d="M5184 2055 c-8 -20 -14 -16 91 -65 99 -45 100 -44 5 22 -89 61 -89
62 -96 43z"/>
<path d="M1000 1941 c0 -6 5 -13 10 -16 6 -3 10 1 10 9 0 9 -4 16 -10 16 -5 0
-10 -4 -10 -9z"/>
<path d="M5380 1935 c0 -8 5 -15 10 -15 6 0 10 7 10 15 0 8 -4 15 -10 15 -5 0
-10 -7 -10 -15z"/>
<path d="M1325 1889 c-9 -14 -2 -20 14 -10 8 6 9 11 3 15 -6 3 -14 1 -17 -5z"/>
<path d="M5056 1891 c-3 -5 1 -11 9 -15 8 -3 15 -1 15 4 0 13 -18 22 -24 11z"/>
<path d="M1240 1804 c0 -5 8 -23 19 -40 11 -18 20 -57 23 -95 3 -43 14 -84 34
-124 24 -49 29 -73 29 -132 0 -68 1 -72 20 -66 42 13 108 2 173 -29 45 -21 87
-33 127 -35 38 -3 77 -13 106 -29 56 -29 113 -31 156 -4 30 18 35 18 69 4 20
-9 46 -13 58 -10 16 4 24 -2 36 -27 8 -18 25 -36 38 -42 18 -8 22 -18 22 -55
0 -60 29 -105 85 -132 25 -12 48 -31 51 -42 12 -38 54 -86 114 -126 64 -44
110 -101 110 -137 0 -13 5 -23 10 -23 6 0 10 4 10 9 0 12 62 50 98 61 20 6 22
8 7 9 -11 0 -40 -11 -64 -24 -34 -20 -46 -23 -53 -13 -4 7 -8 16 -8 20 0 16
-65 80 -124 122 -56 40 -96 91 -96 123 0 5 -15 15 -34 21 -19 7 -48 29 -65 48
-25 28 -31 43 -31 82 0 42 -4 50 -35 75 -42 33 -46 69 -11 92 28 19 54 10 67
-22 5 -13 14 -21 19 -18 13 8 7 84 -11 141 l-13 41 -40 -10 c-23 -5 -60 -18
-83 -28 -51 -22 -58 -48 -13 -41 24 3 32 0 41 -21 25 -55 -24 -91 -84 -62 -35
16 -38 16 -70 -4 -48 -29 -105 -27 -153 6 -32 21 -49 26 -92 24 -41 -2 -69 5
-132 34 -59 27 -93 36 -135 36 l-55 1 0 55 c0 42 -9 75 -36 134 -28 62 -35 90
-33 131 2 43 -3 60 -24 92 -15 21 -27 35 -27 30z"/>
<path d="M1655 1660 c-3 -5 -1 -10 4 -10 6 0 11 5 11 10 0 6 -2 10 -4 10 -3 0
-8 -4 -11 -10z"/>
<path d="M4730 1660 c0 -5 5 -10 11 -10 5 0 7 5 4 10 -3 6 -8 10 -11 10 -2 0
-4 -4 -4 -10z"/>
<path d="M1570 1630 c0 -5 -9 -10 -19 -10 -24 0 -35 -15 -24 -32 4 -7 6 -24 4
-37 -2 -21 1 -23 23 -19 14 3 27 0 29 -5 6 -18 37 1 37 23 0 11 5 20 10 20 18
0 11 22 -16 46 -26 25 -44 31 -44 14z m30 -36 c11 -12 10 -18 -3 -32 -16 -15
-18 -15 -34 0 -13 14 -14 20 -3 32 7 9 16 16 20 16 4 0 13 -7 20 -16z"/>
<path d="M4783 1614 c-24 -26 -29 -44 -13 -44 6 0 10 -9 10 -19 0 -25 17 -36
34 -22 7 6 21 8 31 5 20 -8 40 17 22 28 -9 5 -9 10 1 20 20 20 14 38 -13 38
-14 0 -25 5 -25 10 0 17 -24 9 -47 -16z m57 -20 c11 -12 10 -18 -3 -32 -16
-15 -18 -15 -34 0 -13 14 -14 20 -3 32 7 9 16 16 20 16 4 0 13 -7 20 -16z"/>
<path d="M4211 1386 c-18 -57 -24 -133 -11 -141 5 -3 14 5 19 18 13 32 39 41
67 22 35 -23 31 -59 -11 -92 -31 -25 -35 -33 -35 -75 0 -39 -6 -54 -31 -82
-17 -19 -46 -41 -65 -48 -19 -6 -34 -16 -34 -21 0 -32 -40 -83 -96 -123 -59
-42 -124 -106 -124 -122 0 -4 -4 -13 -8 -20 -7 -10 -19 -7 -55 13 -33 19 -70
29 -131 35 -77 8 -129 25 -164 53 -8 6 -33 10 -57 8 -62 -4 -109 20 -137 68
-19 34 -28 41 -53 41 -62 0 -97 56 -59 94 19 20 38 20 58 1 18 -19 26 -19 26
0 0 20 -46 85 -73 104 -12 8 -25 20 -29 25 -6 8 -10 8 -15 0 -5 -5 -18 -17
-30 -25 -27 -19 -73 -84 -73 -104 0 -19 8 -19 26 0 20 19 39 19 58 -1 38 -38
3 -94 -59 -94 -25 0 -34 -7 -53 -41 -28 -48 -75 -72 -137 -68 -24 2 -49 -2
-57 -8 -33 -26 -86 -46 -147 -53 l-66 -9 67 3 c49 3 79 11 114 30 31 18 61 26
93 26 59 0 109 25 139 70 18 27 33 37 65 42 23 4 48 16 55 25 8 12 15 14 20 7
11 -17 48 -34 75 -34 16 0 31 -11 48 -37 31 -49 80 -73 146 -73 28 0 55 -5 59
-11 13 -21 77 -41 161 -49 62 -7 96 -16 129 -35 24 -14 44 -30 44 -35 0 -6 5
-10 10 -10 6 0 10 10 10 23 0 36 41 86 121 146 50 38 80 69 94 97 14 29 34 48
64 65 55 29 81 70 81 129 0 39 4 47 30 62 16 9 32 29 36 43 5 22 11 25 30 21
13 -4 40 1 60 9 33 14 40 14 60 0 34 -22 41 -18 11 5 -30 24 -35 24 -76 4 -56
-28 -106 10 -83 62 9 18 19 24 42 24 16 0 30 4 30 10 0 12 -71 45 -126 57
l-40 10 -13 -41z"/>
<path d="M4850 1325 c-60 -28 -86 -35 -130 -34 -45 2 -62 -3 -94 -25 -21 -14
-35 -26 -30 -26 5 0 23 9 39 20 21 14 47 20 85 20 40 0 72 8 120 31 35 16 80
34 100 39 28 6 30 8 10 9 -14 0 -59 -15 -100 -34z"/>
<path d="M1876 1335 c-3 -8 -1 -15 4 -15 13 0 22 18 11 24 -5 3 -11 -1 -15 -9z"/>
<path d="M4506 1342 c-3 -6 -1 -14 5 -17 14 -9 20 -2 10 14 -6 8 -11 9 -15 3z"/>
<path d="M1283 1309 c-26 -9 -29 -22 -10 -37 15 -13 31 -4 40 20 8 22 -2 28
-30 17z"/>
<path d="M5085 1310 c-3 -4 3 -18 13 -30 16 -20 19 -20 31 -6 7 8 10 19 7 24
-8 13 -45 22 -51 12z"/>
<path d="M4528 1233 c12 -2 30 -2 40 0 9 3 -1 5 -23 4 -22 0 -30 -2 -17 -4z"/>
<path d="M1996 1139 c-21 -45 -36 -83 -34 -85 7 -6 107 149 102 158 -14 22
-35 1 -68 -73z"/>
<path d="M4336 1212 c-2 -4 20 -44 51 -87 61 -87 61 -86 13 23 -30 65 -50 86
-64 64z"/>
<path d="M2230 1124 c0 -14 3 -14 15 -4 8 7 15 14 15 16 0 2 -7 4 -15 4 -8 0
-15 -7 -15 -16z"/>
<path d="M4140 1136 c0 -2 7 -9 15 -16 12 -10 15 -10 15 4 0 9 -7 16 -15 16
-8 0 -15 -2 -15 -4z"/>
<path d="M2620 1059 c0 -5 5 -7 10 -4 6 3 10 8 10 11 0 2 -4 4 -10 4 -5 0 -10
-5 -10 -11z"/>
<path d="M3765 1060 c3 -5 8 -10 11 -10 2 0 4 5 4 10 0 6 -5 10 -11 10 -5 0
-7 -4 -4 -10z"/>
<path d="M2577 1043 c-4 -3 -7 -14 -7 -24 0 -9 -7 -20 -16 -23 -19 -7 -13 -31
7 -31 8 0 15 -6 15 -12 1 -7 2 -17 3 -23 2 -16 28 -12 35 5 3 8 15 14 28 12
16 -1 22 2 19 13 -3 8 -4 27 -3 43 1 22 -3 27 -23 27 -13 0 -27 5 -30 10 -7
12 -19 13 -28 3z m49 -71 c-19 -19 -46 -8 -46 17 0 25 31 33 48 12 10 -12 9
-18 -2 -29z"/>
<path d="M3790 1040 c0 -6 -6 -10 -12 -9 -32 4 -40 -2 -35 -23 4 -12 1 -28 -4
-35 -15 -17 -1 -35 22 -28 12 4 21 1 25 -9 11 -30 40 -17 35 16 0 4 8 10 19
13 11 4 20 9 20 13 0 12 -20 37 -21 27 0 -5 -4 1 -8 15 -7 25 -41 42 -41 20z
m30 -51 c0 -25 -26 -35 -45 -19 -10 9 -12 17 -5 30 13 24 50 15 50 -11z"/>
<path d="M1925 1010 c3 -5 10 -10 16 -10 5 0 9 5 9 10 0 6 -7 10 -16 10 -8 0
-12 -4 -9 -10z"/>
<path d="M4450 1010 c0 -5 7 -10 15 -10 8 0 15 5 15 10 0 6 -7 10 -15 10 -8 0
-15 -4 -15 -10z"/>
<path d="M2983 925 c0 -9 4 -14 9 -13 5 2 10 8 10 13 0 5 -5 11 -10 13 -5 1
-9 -4 -9 -13z"/>
<path d="M3400 925 c0 -8 2 -15 4 -15 2 0 6 7 10 15 3 8 1 15 -4 15 -6 0 -10
-7 -10 -15z"/>
<path d="M3185 910 c-8 -13 6 -190 15 -190 9 0 23 177 15 190 -3 6 -10 10 -15
10 -5 0 -12 -4 -15 -10z"/>
<path d="M3190 670 c0 -5 5 -10 10 -10 6 0 10 5 10 10 0 6 -4 10 -10 10 -5 0
-10 -4 -10 -10z"/>
<path d="M2492 611 c-18 -11 -11 -46 8 -46 9 0 16 11 18 28 3 28 -3 33 -26 18z"/>
<path d="M3880 596 c0 -30 16 -42 35 -26 11 9 12 17 4 31 -14 27 -39 24 -39
-5z"/>
</g>
</svg>
